<?xml version="1.0" standalone="no"?>
<!DOCTYPE svg PUBLIC "-//W3C//DTD SVG 20010904//EN"
 "http://www.w3.org/TR/2001/REC-SVG-20010904/DTD/svg10.dtd">
<svg version="1.0" xmlns="http://www.w3.org/2000/svg"
 width="3209.000000pt" height="654.000000pt" viewBox="0 0 3209.000000 654.000000"
 preserveAspectRatio="xMidYMid meet">
<metadata>
Created by potrace 1.13, written by Peter Selinger 2001-2015
</metadata>
<g transform="translate(0.000000,654.000000) scale(0.100000,-0.100000)"
fill="#000000" stroke="none">
<path d="M10733 5108 c253 -575 681 -1538 682 -1536 7 9 655 1569 655 1578 0
7 -222 10 -680 10 l-680 0 23 -52z"/>
<path d="M21335 5154 c11 -2 130 -10 265 -19 346 -22 560 -61 809 -147 393
-135 704 -383 791 -630 34 -96 39 -273 12 -365 -84 -277 -401 -478 -955 -608
-96 -23 -423 -79 -502 -87 -22 -2 5 -14 105 -46 447 -144 678 -309 905 -647
74 -111 194 -322 236 -419 l23 -52 397 -238 397 -238 616 390 616 389 0 948 0
948 -646 413 -647 414 -1221 -1 c-672 -1 -1212 -3 -1201 -5z"/>
<path d="M27550 4746 l-645 -414 -3 -1006 -2 -1006 1093 0 1092 0 737 553 737
552 0 868 1 867 -1182 0 -1183 -1 -645 -413z"/>
<path d="M15403 4737 l-633 -402 3 -945 2 -944 625 -399 c520 -331 630 -397
655 -395 19 2 266 153 653 397 l622 394 0 946 -1 946 -630 400 c-347 220 -638
401 -647 402 -9 1 -302 -179 -649 -400z"/>
<path d="M7098 4286 l-3 -845 -697 544 -698 545 -1220 0 -1220 0 0 -360 0
-360 659 0 659 0 509 211 c279 116 514 213 521 216 9 4 12 -173 12 -866 0
-479 -4 -871 -8 -871 -5 0 -240 119 -523 265 l-514 265 -657 0 -658 0 0 -292
0 -293 632 -397 632 -398 1291 0 1290 0 625 398 625 398 2 945 3 944 -592 375
c-325 206 -609 385 -630 398 l-38 23 -2 -845z"/>
<path d="M12965 4677 c-7 -18 -296 -698 -640 -1512 -345 -814 -630 -1488 -632
-1497 -5 -16 2 -18 53 -18 l59 1 588 397 587 397 3 1133 c1 622 1 1132 -1
1132 -2 0 -9 -15 -17 -33z"/>
<path d="M9372 3524 l3 -1079 585 -397 585 -398 64 0 c56 0 63 2 58 18 -5 20
-1287 2925 -1293 2931 -2 3 -3 -481 -2 -1075z"/>
<path d="M19178 4494 c-5 -4 -8 -187 -8 -406 l0 -398 808 0 c862 0 930 3 1055
50 116 43 203 124 229 213 19 63 16 212 -6 274 -23 70 -92 145 -163 179 -66
31 -193 58 -348 75 -126 13 -1555 25 -1567 13z"/>
<path d="M19170 2707 l0 -262 628 -397 627 -398 457 0 458 0 -10 24 c-63 166
-289 635 -393 816 -139 242 -206 323 -307 375 -183 93 -293 105 -946 105
l-514 0 0 -263z"/>
</g>
</svg>
